<svg width="252" height="38" viewBox="0 0 252 38" fill="none" xmlns="http://www.w3.org/2000/svg">
<g clipPath="url(#clip0_1_2)">
<path d="M14.7734 27.525V37.6228H22.1615V23.2617L14.7734 27.525Z" fill="#AD9836"/>
<path d="M0 0.688477V37.6228H7.38805V8.07652H14.7731V20.8396L22.1612 16.5734V8.07652H29.5463V37.6228H36.9343V0.688477H0Z" fill="#AD9836"/>
<path d="M54.0528 0.688477H57.7468L63.273 12.8616L68.7963 0.688477H72.4903V19.8375H69.2617V6.2977L64.4737 17.2137H61.9567L57.1687 6.2977V19.8405H54.0498V0.688477H54.0528Z" fill="white"/>
<path d="M89.6738 15.1592H82.5881L81.1384 19.8375H77.6904L83.9015 0.688477H88.4968L94.7049 19.8375H91.1206L89.6708 15.1592H89.6738ZM88.7429 12.15L86.1161 3.64429L83.4894 12.15H88.7429Z" fill="white"/>
<path d="M114.269 19.8375H110.711L107.183 12.6985H103.3V19.8375H100.018V0.688477H109.84C112.437 0.688477 113.67 1.91883 113.67 4.51888V8.78509C113.67 11.0827 112.712 12.3131 110.688 12.5621L114.272 19.8375H114.269ZM109.371 9.76937C110.109 9.76937 110.382 9.49662 110.382 8.72876V4.67897C110.382 3.94076 110.109 3.66801 109.371 3.66801H103.3V9.76937H109.371Z" fill="white"/>
<path d="M123.355 3.67097H117.912V0.688477H132.054V3.67097H126.637V19.8375H123.355V3.67097Z" fill="white"/>
<path d="M137.746 0.688477H141.028V19.8375H137.746V0.688477Z" fill="white"/>
<path d="M147.731 0.688477H151.179L159.386 14.3113V0.688477H162.558V19.8375H159.329L150.904 5.83224V19.8375H147.731V0.688477Z" fill="white"/>
<path d="M175.614 0.688477H178.896V8.53902H186.664V0.688477H189.946V19.8375H186.664V11.5482H178.896V19.8375H175.614V0.688477Z" fill="white"/>
<path d="M196.186 16.0071V4.51888C196.186 1.92179 197.417 0.688477 200.017 0.688477H206.72C209.32 0.688477 210.55 1.91883 210.55 4.51888V16.0101C210.55 18.6072 209.32 19.8405 206.72 19.8405H200.017C197.42 19.8405 196.186 18.6101 196.186 16.0101V16.0071ZM206.255 16.8283C206.993 16.8283 207.266 16.5556 207.266 15.8174V4.70862C207.266 3.97041 206.993 3.69765 206.255 3.69765H200.509C199.744 3.69765 199.468 3.97041 199.468 4.70862V15.8144C199.468 16.5526 199.741 16.8254 200.509 16.8254H206.255V16.8283Z" fill="white"/>
<path d="M231.289 19.8375H227.731L224.203 12.6985H220.319V19.8375H217.037V0.688477H226.859C229.456 0.688477 230.69 1.91883 230.69 4.51888V8.78509C230.69 11.0827 229.732 12.3131 227.707 12.5621L231.292 19.8375H231.289ZM226.391 9.76937C227.129 9.76937 227.402 9.49662 227.402 8.72876V4.67897C227.402 3.94076 227.129 3.66801 226.391 3.66801H220.319V9.76937H226.391Z" fill="white"/>
<path d="M237.174 0.688477H240.622L248.828 14.3113V0.688477H252V19.8375H248.772L240.346 5.83224V19.8375H237.174V0.688477Z" fill="white"/>
<path d="M54.0527 26.873H55.2505L57.5392 36.2089L60.1185 26.873H61.1324L63.7117 36.2089L66.0005 26.873H67.1686L64.2661 37.6201H63.1158L60.6284 28.6074L58.1411 37.6201H56.9581L54.0557 26.873H54.0527Z" fill="white"/>
<path d="M70.6367 26.873H77.4378V27.887H71.7396V31.6166H76.5454V32.6305H71.7396V36.6062H77.4378V37.6201H70.6367V26.873Z" fill="white"/>
<path d="M86.5137 26.873H91.7049C93.1635 26.873 93.8543 27.5638 93.8543 29.0225V30.5107C93.8543 31.4179 93.4392 31.8923 92.8404 32.1235C93.5934 32.34 93.9758 32.8469 93.9758 33.7512V35.4707C93.9758 36.9293 93.2851 37.6201 91.8264 37.6201H86.5137V26.873ZM91.6426 31.6166C92.4401 31.6166 92.7484 31.3082 92.7484 30.5107V28.9898C92.7484 28.1923 92.4431 27.884 91.6426 27.884H87.6195V31.6136H91.6426V31.6166ZM91.7642 36.6062C92.5617 36.6062 92.87 36.2978 92.87 35.5003V33.7186C92.87 32.921 92.5646 32.6127 91.7642 32.6127H87.6195V36.6062H91.7642Z" fill="white"/>
<path d="M97.8301 35.4736V26.876H98.9359V35.5062C98.9359 36.3037 99.2442 36.6121 100.042 36.6121H103.143C103.94 36.6121 104.249 36.3037 104.249 35.5062V26.876H105.354V35.4736C105.354 36.9323 104.664 37.623 103.205 37.623H99.9824C98.5238 37.623 97.833 36.9323 97.833 35.4736H97.8301Z" fill="white"/>
<path d="M109.67 26.873H110.776V37.6201H109.67V26.873Z" fill="white"/>
<path d="M115.259 26.873H116.365V36.6091H121.677V37.6231H115.259V26.876V26.873Z" fill="white"/>
<path d="M125.303 26.873H130.66C132.119 26.873 132.809 27.5638 132.809 29.0225V35.4707C132.809 36.9293 132.119 37.6201 130.66 37.6201H125.303V26.873ZM130.601 36.6091C131.398 36.6091 131.707 36.3008 131.707 35.5033V28.9928C131.707 28.1953 131.398 27.887 130.601 27.887H126.409V36.6091H130.601Z" fill="white"/>
<path d="M141.811 35.4736V34.3826H142.916V35.5655C142.916 36.363 143.222 36.6714 144.022 36.6714H147.061C147.859 36.6714 148.167 36.366 148.167 35.5655V34.2759C148.167 33.4636 147.814 33.1997 147.061 33.0307L144.052 32.3399C142.854 32.0642 141.84 31.7559 141.84 30.146V29.0254C141.84 27.5668 142.531 26.876 143.99 26.876H146.969C148.428 26.876 149.119 27.5668 149.119 29.0254V30.0067H148.013V28.9305C148.013 28.133 147.707 27.8247 146.907 27.8247H144.052C143.254 27.8247 142.946 28.133 142.946 28.9305V30.0215C142.946 30.8339 143.299 31.0948 144.052 31.2637L147.061 31.9545C148.259 32.2302 149.273 32.5386 149.273 34.1514V35.4707C149.273 36.9293 148.582 37.6201 147.123 37.6201H143.96C142.501 37.6201 141.811 36.9293 141.811 35.4707V35.4736Z" fill="white"/>
<path d="M155.49 27.887H152.188V26.873H159.896V27.887H156.593V37.6201H155.487V27.887H155.49Z" fill="white"/>
<path d="M163.23 35.4736V26.876H164.336V35.5062C164.336 36.3037 164.642 36.6121 165.442 36.6121H168.543C169.341 36.6121 169.649 36.3037 169.649 35.5062V26.876H170.755V35.4736C170.755 36.9323 170.064 37.623 168.605 37.623H165.38C163.921 37.623 163.23 36.9323 163.23 35.4736Z" fill="white"/>
<path d="M175.071 26.873H181.872V27.887H176.174V31.7411H180.98V32.755H176.174V37.6231H175.068V26.876L175.071 26.873Z" fill="white"/>
<path d="M185.466 26.873H192.267V27.887H186.569V31.7411H191.375V32.755H186.569V37.6231H185.463V26.876L185.466 26.873Z" fill="white"/>
</g>
<defs>
<clipPath id="clip0_1_2">
<rect width="252" height="36.9343" fill="white" transform="translate(0 0.688477)"/>
</clipPath>
</defs>
</svg>
