<svg width="328" height="48" viewBox="0 0 328 48" fill="none" xmlns="http://www.w3.org/2000/svg">
<g clipPath="url(#clip0_2_54)">
<path d="M19.2285 34.8769V48H28.8447V29.3363L19.2285 34.8769Z" fill="#AD9836"/>
<path d="M0 0V48H9.61619V9.60154H19.2285V26.1885L28.8447 20.6441V9.60154H38.457V48H48.0732V0H0Z" fill="#AD9836"/>
<path d="M70.3544 0H75.1625L82.3554 15.8202L89.5444 0H94.3525V24.8862H90.1502V7.28977L83.9182 21.4763H80.6421L74.4101 7.28977V24.89H70.3506V0H70.3544Z" fill="#172532"/>
<path d="M116.717 18.8062H107.495L105.608 24.8862H101.12L109.204 0H115.186L123.266 24.8862H118.601L116.714 18.8062H116.717ZM115.506 14.8955L112.087 3.84139L108.668 14.8955H115.506Z" fill="#172532"/>
<path d="M148.731 24.8862H144.1L139.508 15.6083H134.453V24.8862H130.182V0H142.966C146.346 0 147.952 1.59897 147.952 4.97801V10.5224C147.952 13.5084 146.705 15.1074 144.07 15.431L148.735 24.8862H148.731ZM142.356 11.8016C143.317 11.8016 143.672 11.4471 143.672 10.4492V5.18607C143.672 4.22668 143.317 3.87221 142.356 3.87221H134.453V11.8016H142.356Z" fill="#172532"/>
<path d="M160.557 3.87606H153.473V0H171.879V3.87606H164.829V24.8862H160.557V3.87606Z" fill="#172532"/>
<path d="M179.289 0H183.561V24.8862H179.289V0Z" fill="#172532"/>
<path d="M192.285 0H196.773L207.454 17.7043V0H211.583V24.8862H207.381L196.414 6.68486V24.8862H192.285V0Z" fill="#172532"/>
<path d="M228.577 0H232.849V10.2026H242.959V0H247.231V24.8862H242.959V14.1133H232.849V24.8862H228.577V0Z" fill="#172532"/>
<path d="M255.354 19.9082V4.97801C255.354 1.60283 256.955 0 260.339 0H269.064C272.448 0 274.05 1.59897 274.05 4.97801V19.912C274.05 23.2872 272.448 24.89 269.064 24.89H260.339C256.959 24.89 255.354 23.2911 255.354 19.912V19.9082ZM268.458 20.9754C269.419 20.9754 269.774 20.621 269.774 19.6616V5.22459C269.774 4.26521 269.419 3.91074 268.458 3.91074H260.98C259.984 3.91074 259.625 4.26521 259.625 5.22459V19.6577C259.625 20.6171 259.98 20.9716 260.98 20.9716H268.458V20.9754Z" fill="#172532"/>
<path d="M301.043 24.8862H296.412L291.82 15.6083H286.765V24.8862H282.493V0H295.277C298.658 0 300.263 1.59897 300.263 4.97801V10.5224C300.263 13.5084 299.017 15.1074 296.381 15.431L301.046 24.8862H301.043ZM294.668 11.8016C295.629 11.8016 295.984 11.4471 295.984 10.4492V5.18607C295.984 4.22668 295.629 3.87221 294.668 3.87221H286.765V11.8016H294.668Z" fill="#172532"/>
<path d="M308.702 0H313.19L323.871 17.7043V0H328V24.8862H323.798L312.831 6.68486V24.8862H308.702V0Z" fill="#172532"/>
<path d="M70.3545 34.0293H71.9135L74.8925 46.1622L78.2496 34.0293H79.5694L82.9265 46.1622L85.9055 34.0293H87.4259L83.6481 47.9962H82.1509L78.9134 36.2833L75.6758 47.9962H74.1361L70.3583 34.0293H70.3545Z" fill="#172532"/>
<path d="M91.9403 34.0292H100.792V35.3469H93.3758V40.1939H99.631V41.5116H93.3758V46.6784H100.792V47.9961H91.9403V34.0292Z" fill="#172532"/>
<path d="M112.604 34.0292H119.361C121.26 34.0292 122.159 34.927 122.159 36.8226V38.7568C122.159 39.9358 121.619 40.5523 120.839 40.8528C121.819 41.134 122.317 41.7929 122.317 42.968V45.2028C122.317 47.0984 121.418 47.9961 119.519 47.9961H112.604V34.0292ZM119.28 40.1939C120.318 40.1939 120.719 39.7932 120.719 38.7568V36.7802C120.719 35.7438 120.322 35.3431 119.28 35.3431H114.044V40.1901H119.28V40.1939ZM119.438 46.6784C120.476 46.6784 120.878 46.2777 120.878 45.2413V42.9257C120.878 41.8892 120.48 41.4885 119.438 41.4885H114.044V46.6784H119.438Z" fill="#172532"/>
<path d="M127.333 45.2067V34.0332H128.772V45.2491C128.772 46.2856 129.174 46.6863 130.212 46.6863H134.248C135.286 46.6863 135.687 46.2856 135.687 45.2491V34.0332H137.127V45.2067C137.127 47.1024 136.228 48.0001 134.329 48.0001H130.135C128.236 48.0001 127.337 47.1024 127.337 45.2067H127.333Z" fill="#172532"/>
<path d="M142.746 34.0293H144.185V47.9962H142.746V34.0293Z" fill="#172532"/>
<path d="M150.019 34.0292H151.459V46.6823H158.374V48H150.019V34.0331V34.0292Z" fill="#172532"/>
<path d="M163.093 34.0293H170.066C171.964 34.0293 172.863 34.927 172.863 36.8227V45.2028C172.863 47.0985 171.964 47.9962 170.066 47.9962H163.093V34.0293ZM169.988 46.6824C171.027 46.6824 171.428 46.2817 171.428 45.2452V36.7842C171.428 35.7477 171.027 35.347 169.988 35.347H164.532V46.6824H169.988Z" fill="#172532"/>
<path d="M184.579 45.2066V43.7887H186.018V45.3261C186.018 46.3625 186.416 46.7632 187.458 46.7632H191.413C192.451 46.7632 192.852 46.3663 192.852 45.3261V43.65C192.852 42.5943 192.393 42.2514 191.413 42.0318L187.496 41.134C185.937 40.7757 184.618 40.375 184.618 38.2829V36.8265C184.618 34.9308 185.517 34.0331 187.415 34.0331H191.293C193.192 34.0331 194.091 34.9308 194.091 36.8265V38.1018H192.652V36.7032C192.652 35.6667 192.254 35.266 191.212 35.266H187.496C186.458 35.266 186.057 35.6667 186.057 36.7032V38.121C186.057 39.1768 186.516 39.5158 187.496 39.7354L191.413 40.6332C192.972 40.9915 194.292 41.3922 194.292 43.4882V45.2028C194.292 47.0984 193.393 47.9961 191.494 47.9961H187.377C185.478 47.9961 184.579 47.0984 184.579 45.2028V45.2066Z" fill="#172532"/>
<path d="M202.384 35.3469H198.085V34.0292H208.118V35.3469H203.819V47.9961H202.38V35.3469H202.384Z" fill="#172532"/>
<path d="M212.459 45.2066V34.0331H213.898V45.249C213.898 46.2854 214.296 46.6861 215.338 46.6861H219.374C220.412 46.6861 220.813 46.2854 220.813 45.249V34.0331H222.253V45.2066C222.253 47.1023 221.354 48 219.455 48H215.257C213.358 48 212.459 47.1023 212.459 45.2066Z" fill="#172532"/>
<path d="M227.871 34.0292H236.723V35.3469H229.307V40.3558H235.562V41.6735H229.307V48H227.867V34.0331L227.871 34.0292Z" fill="#172532"/>
<path d="M241.4 34.0292H250.252V35.3469H242.836V40.3558H249.091V41.6735H242.836V48H241.396V34.0331L241.4 34.0292Z" fill="#172532"/>
</g>
<defs>
<clipPath id="clip0_2_54">
<rect width="328" height="48" fill="white"/>
</clipPath>
</defs>
</svg>
