<svg width="25" height="25" viewBox="0 0 25 25" fill="none" xmlns="http://www.w3.org/2000/svg">
<g clipPath="url(#clip0_261_13235)">
<path d="M16.1326 15.0223C17.5193 13.3771 18.2772 11.3035 18.2772 9.13861C18.2772 6.69742 17.3266 4.40073 15.6003 2.67441C13.874 0.948084 11.5823 0 9.13861 0C6.69489 0 4.3982 0.950619 2.67441 2.67441C0.950619 4.3982 0 6.69489 0 9.13861C0 11.5823 0.950619 13.879 2.67441 15.6028C4.3982 17.3291 6.69489 18.2823 9.13861 18.2823C11.3035 18.2823 13.3796 17.5218 15.0223 16.1377L23.8897 25.0051L25.0025 23.8922L16.1352 15.0248L16.1326 15.0223ZM16.703 9.13861C16.703 11.159 15.9146 13.0602 14.4874 14.49C13.0602 15.9197 11.1565 16.7055 9.13608 16.7055C7.1157 16.7055 5.21446 15.9172 3.78473 14.49C2.35753 13.0628 1.57169 11.1615 1.57169 9.13861C1.57169 7.1157 2.35753 5.21446 3.78473 3.78726C5.21193 2.36007 7.11316 1.57422 9.13608 1.57422C11.159 1.57422 13.0602 2.36007 14.4874 3.78726C15.9172 5.21699 16.703 7.11823 16.703 9.13861Z" fill="#231F20"/>
</g>
<defs>
<clipPath id="clip0_261_13235">
<rect width="25" height="25" fill="white"/>
</clipPath>
</defs>
</svg>
