<svg width="20" height="20" viewBox="0 0 20 20" fill="none" xmlns="http://www.w3.org/2000/svg">
    <path d="M12.9061 12.0178C14.0154 10.7017 14.6218 9.04279 14.6218 7.31089C14.6218 5.35794 13.8613 3.52058 12.4802 2.13953C11.0992 0.758467 9.26587 0 7.31089 0C5.35591 0 3.51856 0.760495 2.13953 2.13953C0.760495 3.51856 0 5.35591 0 7.31089C0 9.26587 0.760495 11.1032 2.13953 12.4823C3.51856 13.8633 5.35591 14.6258 7.31089 14.6258C9.04279 14.6258 10.7037 14.0174 12.0178 12.9102L19.1117 20.0041L20.002 19.1138L12.9081 12.0199L12.9061 12.0178ZM13.3624 7.31089C13.3624 8.92719 12.7317 10.4482 11.5899 11.592C10.4482 12.7358 8.92517 13.3644 7.30886 13.3644C5.69256 13.3644 4.17157 12.7337 3.02778 11.592C1.88603 10.4502 1.25735 8.92922 1.25735 7.31089C1.25735 5.69256 1.88603 4.17157 3.02778 3.02981C4.16954 1.88806 5.69053 1.25938 7.30886 1.25938C8.92719 1.25938 10.4482 1.88806 11.5899 3.02981C12.7337 4.1736 13.3624 5.69459 13.3624 7.31089Z" fill="white"/>
</svg>
